<?xml version="1.0" encoding="UTF-8" standalone="no"?>
<!DOCTYPE svg PUBLIC "-//W3C//DTD SVG 1.1//EN" "http://www.w3.org/Graphics/SVG/1.1/DTD/svg11.dtd">
<svg width="100%" height="100%" viewBox="0 0 124 51" version="1.1" xmlns="http://www.w3.org/2000/svg" xmlns:xlink="http://www.w3.org/1999/xlink" xml:space="preserve" xmlns:serif="http://www.serif.com/" style="fill-rule:evenodd;clip-rule:evenodd;stroke-linejoin:round;stroke-miterlimit:2;">
    <g id="Artboard2" transform="matrix(1,0,0,1,-3.7,0.3)">
        <rect x="3.7" y="-0.3" width="123.2" height="51" style="fill:none;"/>
        <g transform="matrix(1,0,0,1,1.7,1.7)">
            <g transform="matrix(1,0,0,1,1,1)">
                <path d="M29.993,38C29.993,41.292 27.285,44 23.993,44C20.701,44 17.993,41.292 17.993,38C17.993,34.708 20.701,32 23.993,32C27.285,32 29.993,34.708 29.993,38" style="fill:url(#_Linear1);fill-rule:nonzero;"/>
            </g>
            <g transform="matrix(1,0,0,1,1,1)">
                <path d="M24,4C15.716,4 9,10.716 9,19L9,27.487L6.196,33.842C6.07,34.128 6.005,34.437 6.005,34.75C6.005,35.984 7.02,37 8.254,37L39.746,37C40.98,37 41.995,35.984 41.995,34.75C41.995,34.437 41.93,34.128 41.804,33.842L39,27.487L39,19C39,10.716 32.284,4 24,4" style="fill:url(#_Linear2);fill-rule:nonzero;"/>
            </g>
            <g transform="matrix(0.0328816,0,0,0.0328816,16.4815,28.4166)">
                <path d="M265.12,60.12C262.841,57.459 259.508,55.925 256.005,55.925C252.502,55.925 249.169,57.459 246.89,60.12C215.23,97.15 112,225.17 112,320C112,408.37 167.64,464 256,464C344.36,464 400,408.37 400,320C400,225.17 296.77,97.15 265.12,60.12M272,412C271.991,412 271.982,412 271.974,412C265.391,412 259.974,406.583 259.974,400C259.974,398.637 260.206,397.285 260.66,396C262.334,391.163 266.952,387.925 272.07,388C304.92,387.929 331.929,360.92 332,328.07C331.925,322.952 335.163,318.334 340,316.66C341.285,316.206 342.637,315.974 344,315.974C350.583,315.974 356,321.391 356,327.974C356,327.982 356,327.991 356,328C355.951,374.062 318.062,411.951 272,412" style="fill:white;fill-rule:nonzero;"/>
            </g>
            <g transform="matrix(1.75699,0,0,1.75699,-7.36512,-15.7378)">
                <path d="M19.128,20.609L14.741,27.787C14.531,28.132 14,27.982 14,27.578L14,22.4C14,22.181 13.819,22 13.6,22L11.747,22C11.528,22 11.348,21.819 11.348,21.6C11.348,21.521 11.371,21.444 11.415,21.378L16.267,14.099C16.341,13.988 16.466,13.921 16.6,13.921C16.819,13.921 17,14.101 17,14.321L17,19.6C17,19.82 17.18,20 17.4,20L18.787,20C19.006,20 19.187,20.181 19.187,20.4C19.187,20.474 19.167,20.546 19.128,20.609" style="fill:rgb(255,103,35);fill-rule:nonzero;"/>
            </g>
        </g>
        <g transform="matrix(1.24521,0,0,1.24521,-10.2245,-0.591318)">
            <text x="46.3px" y="22.9px" style="font-family:'Impact', sans-serif;font-stretch:condensed;font-size:20.941px;fill:white;">ALERTS</text>
        </g>
        <g transform="matrix(1,0,0,1,2.3,-0.7)">
            <text x="44.1px" y="40.3px" style="font-family:'Impact', sans-serif;font-stretch:condensed;font-size:12.65px;fill:white;">Corpus Christi</text>
        </g>
    </g>
    <defs>
        <linearGradient id="_Linear1" x1="0" y1="0" x2="1" y2="0" gradientUnits="userSpaceOnUse" gradientTransform="matrix(0.039,7.713,-7.713,0.039,23.993,36.286)"><stop offset="0" style="stop-color:rgb(235,72,36);stop-opacity:1"/><stop offset="1" style="stop-color:rgb(255,205,15);stop-opacity:0.98"/></linearGradient>
        <linearGradient id="_Linear2" x1="0" y1="0" x2="1" y2="0" gradientUnits="userSpaceOnUse" gradientTransform="matrix(-27.261,-24.633,24.633,-27.261,37.487,33.333)"><stop offset="0" style="stop-color:rgb(255,111,71);stop-opacity:1"/><stop offset="1" style="stop-color:rgb(255,205,15);stop-opacity:1"/></linearGradient>
    </defs>
</svg>
